<svg width="79" height="32" viewBox="0 0 79 32" fill="none" xmlns="http://www.w3.org/2000/svg">
<rect width="79" height="32" fill="#595959"/>
<rect x="0.5" y="0.5" width="78" height="31" stroke="black" stroke-opacity="0.55"/>
<path fill-rule="evenodd" clip-rule="evenodd" d="M2 2H7V7H2V2ZM2 9H63V30H2V9ZM73 25H77V30H64V25H68V21H73V25ZM27 2H10V7H27V2ZM28 2H45V7H28V2ZM63 2H46V7H63V2ZM64 2H77V7H64V2ZM77 9H64V18H77V9Z" fill="#292929"/>
<rect x="3" y="3" width="3" height="3" fill="#777777"/>
<rect x="11" y="3" width="3" height="3" fill="#777777"/>
<rect x="15" y="3" width="3" height="3" fill="#777777"/>
<rect x="19" y="3" width="3" height="3" fill="#777777"/>
<rect x="73" y="3" width="3" height="3" fill="#777777"/>
<rect x="23" y="3" width="3" height="3" fill="#777777"/>
<rect x="69" y="3" width="3" height="3" fill="#777777"/>
<rect x="29" y="3" width="3" height="3" fill="#777777"/>
<rect x="33" y="3" width="3" height="3" fill="#777777"/>
<rect x="37" y="3" width="3" height="3" fill="#777777"/>
<rect x="41" y="3" width="3" height="3" fill="#777777"/>
<rect x="47" y="3" width="3" height="3" fill="#777777"/>
<rect x="51" y="3" width="3" height="3" fill="#777777"/>
<rect x="55" y="3" width="3" height="3" fill="#777777"/>
<rect x="59" y="3" width="3" height="3" fill="#777777"/>
<rect x="65" y="3" width="3" height="3" fill="#777777"/>
<rect x="3" y="10" width="3" height="3" fill="#777777"/>
<rect x="7" y="10" width="3" height="3" fill="#777777"/>
<rect x="11" y="10" width="3" height="3" fill="#777777"/>
<rect x="3" y="14" width="5" height="3" fill="#777777"/>
<rect x="9" y="14" width="3" height="3" fill="#777777"/>
<rect x="3" y="18" width="6" height="3" fill="#777777"/>
<rect x="3" y="22" width="4" height="3" fill="#777777"/>
<rect x="3" y="26" width="4" height="3" fill="#777777"/>
<rect x="8" y="26" width="4" height="3" fill="#777777"/>
<rect x="8" y="22" width="3" height="3" fill="#777777"/>
<rect x="10" y="18" width="3" height="3" fill="#777777"/>
<rect x="13" y="14" width="3" height="3" fill="#777777"/>
<rect x="14" y="18" width="3" height="3" fill="#777777"/>
<rect x="12" y="22" width="3" height="3" fill="#777777"/>
<rect x="13" y="26" width="4" height="3" fill="#777777"/>
<rect x="16" y="22" width="3" height="3" fill="#777777"/>
<rect x="18" y="18" width="3" height="3" fill="#777777"/>
<rect x="17" y="14" width="3" height="3" fill="#777777"/>
<rect x="15" y="10" width="3" height="3" fill="#777777"/>
<rect x="19" y="10" width="3" height="3" fill="#777777"/>
<rect x="21" y="14" width="3" height="3" fill="#777777"/>
<rect x="23" y="10" width="3" height="3" fill="#777777"/>
<rect x="22" y="18" width="3" height="3" fill="#777777"/>
<rect x="20" y="22" width="3" height="3" fill="#777777"/>
<rect x="18" y="26" width="24" height="3" fill="#777777"/>
<rect x="24" y="22" width="3" height="3" fill="#777777"/>
<rect x="26" y="18" width="3" height="3" fill="#777777"/>
<rect x="29" y="14" width="3" height="3" fill="#777777"/>
<rect x="33" y="14" width="3" height="3" fill="#777777"/>
<rect x="38" y="18" width="3" height="3" fill="#777777"/>
<rect x="36" y="22" width="3" height="3" fill="#777777"/>
<rect x="32" y="22" width="3" height="3" fill="#777777"/>
<rect x="28" y="22" width="3" height="3" fill="#777777"/>
<rect x="25" y="14" width="3" height="3" fill="#777777"/>
<rect x="27" y="10" width="3" height="3" fill="#777777"/>
<rect x="30" y="18" width="3" height="3" fill="#777777"/>
<rect x="34" y="18" width="3" height="3" fill="#777777"/>
<rect x="31" y="10" width="3" height="3" fill="#777777"/>
<rect x="35" y="10" width="3" height="3" fill="#777777"/>
<rect x="43" y="26" width="4" height="3" fill="#777777"/>
<rect x="48" y="26" width="4" height="3" fill="#777777"/>
<rect x="53" y="26" width="4" height="3" fill="#777777"/>
<rect x="58" y="26" width="4" height="3" fill="#777777"/>
<rect x="52" y="22" width="10" height="3" fill="#777777"/>
<rect x="54" y="18" width="3" height="3" fill="#777777"/>
<rect x="53" y="14" width="3" height="3" fill="#777777"/>
<rect x="55" y="10" width="7" height="3" fill="#777777"/>
<rect x="51" y="10" width="3" height="3" fill="#777777"/>
<rect x="47" y="10" width="3" height="3" fill="#777777"/>
<rect x="43" y="10" width="3" height="3" fill="#777777"/>
<rect x="39" y="10" width="3" height="3" fill="#777777"/>
<rect x="37" y="14" width="3" height="3" fill="#777777"/>
<rect x="41" y="14" width="3" height="3" fill="#777777"/>
<rect x="45" y="14" width="3" height="3" fill="#777777"/>
<rect x="49" y="14" width="3" height="3" fill="#777777"/>
<rect x="50" y="18" width="3" height="3" fill="#777777"/>
<rect x="46" y="18" width="3" height="3" fill="#777777"/>
<rect x="42" y="18" width="3" height="3" fill="#777777"/>
<rect x="40" y="22" width="3" height="3" fill="#777777"/>
<rect x="44" y="22" width="3" height="3" fill="#777777"/>
<rect x="73" y="14" width="3" height="3" fill="#777777"/>
<rect x="73" y="10" width="3" height="3" fill="#777777"/>
<rect x="69" y="10" width="3" height="3" fill="#777777"/>
<rect x="65" y="10" width="3" height="3" fill="#777777"/>
<rect x="69" y="14" width="3" height="3" fill="#777777"/>
<rect x="65" y="14" width="3" height="3" fill="#777777"/>
<rect x="69" y="22" width="3" height="3" fill="#777777"/>
<rect x="69" y="26" width="3" height="3" fill="#777777"/>
<rect x="65" y="26" width="3" height="3" fill="#777777"/>
<rect x="73" y="26" width="3" height="3" fill="#777777"/>
<path d="M57 14H62V21H58V17H57V14Z" fill="#777777"/>
<rect x="48" y="22" width="3" height="3" fill="#777777"/>
</svg>
