<svg width="20" height="41" viewBox="0 0 20 41" fill="none" xmlns="http://www.w3.org/2000/svg">
<path d="M0 15.4445C0 9.92161 4.47715 5.44446 10 5.44446C15.5228 5.44446 20 9.92161 20 15.4445V23.2222V31C20 36.5229 15.5228 41 10 41C4.47715 41 0 36.5229 0 31V23.2222V15.4445Z" fill="#3F3535"/>
<path d="M0 15.4445C0 9.92161 4.47715 5.44446 10 5.44446C15.5228 5.44446 20 9.92161 20 15.4445V23.2222V31C20 36.5229 15.5228 41 10 41C4.47715 41 0 36.5229 0 31V23.2222V15.4445Z" fill="url(#paint0_radial_102_625)" fill-opacity="0.2"/>
<path d="M0 14.4445C0 9.4739 4.02944 5.44446 9 5.44446L8.48849 9.43675C8.16415 11.9681 8.16416 14.5305 8.48849 17.0619L9 21.0542L4.5 39.2656L0 21.0542V14.4445Z" fill="#616161"/>
<path d="M0 14.4445C0 9.4739 4.02944 5.44446 9 5.44446L8.48849 9.43675C8.16415 11.9681 8.16416 14.5305 8.48849 17.0619L9 21.0542L4.5 39.2656L0 21.0542V14.4445Z" fill="url(#paint1_linear_102_625)" fill-opacity="0.2"/>
<path d="M20 14.4445C20 9.47389 15.9706 5.44446 11 5.44446L11.5115 9.43675C11.8358 11.9681 11.8358 14.5305 11.5115 17.0619L11 21.0542L15.5 39.2656L20 21.0542V14.4445Z" fill="#616161"/>
<path d="M20 14.4445C20 9.47389 15.9706 5.44446 11 5.44446L11.5115 9.43675C11.8358 11.9681 11.8358 14.5305 11.5115 17.0619L11 21.0542L15.5 39.2656L20 21.0542V14.4445Z" fill="url(#paint2_linear_102_625)" fill-opacity="0.2"/>
<rect x="9" y="9.60706" width="2" height="4.1626" rx="1" fill="#868686"/>
<rect x="9" y="14.8103" width="2" height="2.0813" rx="1" fill="#979797"/>
<path d="M9.89821 5.44444C9.98182 5.19135 10.0562 4.78878 9.67696 4.65761C9.50199 4.5971 9.27822 4.52166 9.15579 4.40247C8.98252 4.2338 8.97858 3.95751 9.02576 3.75473C9.06632 3.58042 9.18507 3.47733 9.38019 3.39342C10.0101 3.12253 10.7261 2.96861 11.3076 2.62798C11.5905 2.46223 11.828 2.18345 11.9116 1.91276C11.9551 1.77184 11.9481 1.63268 11.9137 1.49054C11.8682 1.30303 11.7767 1.16357 11.6725 1" stroke="#4A3F3F" stroke-linecap="round"/>
<defs>
<radialGradient id="paint0_radial_102_625" cx="0" cy="0" r="1" gradientUnits="userSpaceOnUse" gradientTransform="translate(13.1579 31.0271) rotate(139.262) scale(15.2817 11.0688)">
<stop offset="0.287788"/>
<stop offset="1" stop-opacity="0"/>
</radialGradient>
<linearGradient id="paint1_linear_102_625" x1="4.5" y1="5.44446" x2="4.5" y2="21.0542" gradientUnits="userSpaceOnUse">
<stop offset="0.0677083" stop-color="#100F0F"/>
<stop offset="1" stop-color="#6B6565"/>
</linearGradient>
<linearGradient id="paint2_linear_102_625" x1="14.5" y1="5.44446" x2="14.5" y2="21.0542" gradientUnits="userSpaceOnUse">
<stop offset="0.0677083" stop-color="#100F0F"/>
<stop offset="1" stop-color="#6B6565"/>
</linearGradient>
</defs>
</svg>
